<?xml version="1.0" encoding="iso-8859-1"?><!-- Generator: Adobe Illustrator 22.1.0, SVG Export Plug-In . SVG Version: 6.00 Build 0)  --><svg xmlns="http://www.w3.org/2000/svg" xmlns:xlink="http://www.w3.org/1999/xlink" viewBox="0 0 64 64" width="128px" height="128px"><path style="fill:#C5E4FA;" d="M54,28L42.94,47.87c-0.33,0.69-1.03,1.13-1.8,1.13H40v-6c0.31-0.13,5-3.67,5-9h-3l-2,4l-0.68-1.37  L38,34h-3c0,2.89-1.24,4.32-2.15,5.37C32.2,40.12,32,40.38,32,41c0,0.64,0.22,0.89,0.91,1.59l0.22,0.22C33.95,43.64,35,44.86,35,47  c0,1.99-0.91,3.16-1.63,4.1C32.6,52.09,32,52.87,32,55h3l-3.5,8L28,55c0-3.5,1.27-5.15,2.2-6.35C30.81,47.87,31,47.6,31,47  c0-0.57-0.17-0.83-0.69-1.37c-0.07-0.07-0.14-0.14-0.22-0.22C29.25,44.58,28,43.33,28,41c0-2.14,1.06-3.36,1.83-4.25  C30.53,35.94,31,35.4,31,34h-5l-2,4l-2-4h-3c0,0.84,0.09,1.63,0.24,2.38c0.25,1.18,0.66,2.23,1.12,3.13  c1.08,2.14,2.46,3.41,2.64,3.49v11l-7.13-14.25l-2.14-4.29L10,28L23,1v6l-4,12h4c0,0-3.94,2.95-4,6.91V26c0,1.5,1,2,1,2h2l2-4  l0.4,0.79L26,28h4c-0.12-0.6-0.39-1.16-0.67-1.71c-0.11-0.24-0.23-0.48-0.34-0.72C28.5,24.53,28,23.45,28,22.25  c0-0.45,0.06-0.86,0.17-1.23c0.55-2.1,2.51-3.16,3.88-3.9c0.02-0.01,0.04-0.02,0.05-0.03c1.35-0.74,1.87-1.1,1.9-1.55  c0.01-0.1-0.02-0.2-0.07-0.28C33.83,15.1,33.66,15,33.47,15H30c0,0-0.04,0-0.1,0c-0.48,0.01-2.58,0.12-3.9,1c0-3.8,3-5,3-5l2-4  l0.5,1.05L32.88,11c0,0,0.86,0.01,1.01,0.02c1.12,0.11,2.14,0.63,2.88,1.4s1.2,1.8,1.23,2.94c0.08,3.04-2.41,4.39-4.05,5.27  C32.51,21.41,32,21.78,32,22.25c0,0.21,0.15,0.6,0.34,1.03c0.09,0.2,0.18,0.4,0.27,0.6c0.31,0.67,0.71,1.47,1.01,2.39  c0.17,0.54,0.31,1.11,0.38,1.73h4l2-4l2,4h2c0,0,1-0.5,1-2c0-4-4-7-4-7h4l-1.02-3.08L41,7V1l11.04,22.93L54,28z"/><path style="fill:#E3F2FF;" d="M23,43v9.93l-0.36,0.35l-5.35-10.7l3.07-3.07C21.44,41.65,22.82,42.92,23,43z"/><path style="fill:#E3F2FF;" d="M46.82,13.09l-2.84,2.83v0.01L45,19h-4c0,0,4,3,4,7c0,1.5-1,2-1,2h-2l-2-4l-2,4h-4  c-0.07-0.62-0.21-1.19-0.38-1.73L26,33.875V34h5c0,1.4-0.47,1.94-1.17,2.75C29.06,37.64,28,38.86,28,41c0,2.33,1.25,3.58,2.09,4.41  c0.08,0.08,0.15,0.15,0.22,0.22l2.82-2.82l-0.22-0.22C32.22,41.89,32,41.64,32,41c0-0.62,0.2-0.88,0.85-1.63  C33.76,38.32,35,36.89,35,34h3l1.32,2.63l12.72-12.7L46.82,13.09z"/><path style="fill:#E3F2FF;" d="M21.62,34H19c0,0.84,0.09,1.63,0.24,2.38l-3.37,3.37l-2.14-4.29L21.19,28H22l0.81-1.62l1.59-1.59  L26,28h1.62L21.62,34z"/><path style="fill:#E3F2FF;" d="M38,15.36c0.08,3.04-2.41,4.39-4.05,5.27C32.51,21.41,32,21.78,32,22.25c0,0.21,0.15,0.6,0.34,1.03  l-3.01,3.01c-0.11-0.24-0.23-0.48-0.34-0.72C28.5,24.53,28,23.45,28,22.25c0-0.45,0.06-0.86,0.17-1.23c0.55-2.1,2.51-3.16,3.88-3.9  c0.02-0.01,0.04-0.02,0.05-0.03c1.35-0.74,1.87-1.1,1.9-1.55c0.01-0.1-0.02-0.2-0.07-0.28l2.84-2.84  C37.51,13.19,37.97,14.22,38,15.36z"/><polygon style="fill:#E3F2FF;" points="45.43,10.19 42.91,12.71 41.3,7.89 43.34,5.85 "/><path style="fill:#E3F2FF;" d="M20.55,19H23c0,0-3.94,2.95-4,6.91l-6.69,6.7l-1.79-3.57L20.55,19z"/><path style="fill:#E3F2FF;" d="M33.89,11.02L29.9,15c-0.48,0.01-2.58,0.12-3.9,1c0-3.8,3-5,3-5l2-4l1.88,4h0.56  C33.59,11,33.74,11.01,33.89,11.02z"/><polygon style="fill:#E3F2FF;" points="41.94,2.96 41,3.9 41,1 "/><path style="fill:#8D6C9F;" d="M31.5,64c-0.397,0-0.757-0.235-0.916-0.6l-3.5-8C27.028,55.274,27,55.138,27,55  c0-3.844,1.451-5.718,2.412-6.958C30,47.284,30,47.235,30,47c0-0.228,0-0.257-0.622-0.879C28.489,45.232,27,43.745,27,41  c0-2.512,1.246-3.95,2.071-4.902c0.382-0.44,0.633-0.73,0.777-1.098h-3.23l-1.724,3.447c-0.34,0.678-1.449,0.678-1.789,0L21.382,35  h-1.334c0.381,3.954,2.902,6.708,3.455,7.136C23.808,42.313,24,42.641,24,43v11c0,0.464-0.319,0.866-0.771,0.974  c-0.449,0.102-0.917-0.111-1.124-0.526l-13-26c-0.139-0.277-0.141-0.603-0.007-0.881l13-27c0.203-0.419,0.669-0.647,1.124-0.541  C23.678,0.129,24,0.533,24,1v6c0,0.107-0.018,0.214-0.052,0.316L20.388,18H23c0.43,0,0.811,0.275,0.947,0.683  s-0.003,0.857-0.346,1.116C23.565,19.826,20,22.56,20,26c0,0.545,0.191,0.85,0.333,1h1.049l1.724-3.447  c0.34-0.678,1.449-0.678,1.789,0L26.618,27h1.956c-0.067-0.141-0.139-0.283-0.211-0.427c-0.097-0.195-0.192-0.389-0.282-0.58  C27.574,24.904,27,23.672,27,22.25c0-3.538,2.861-5.087,4.571-6.013c0.098-0.054,0.255-0.139,0.432-0.237H30  c-0.612,0.002-2.429,0.154-3.445,0.832c-0.306,0.205-0.702,0.224-1.026,0.05C25.203,16.708,25,16.369,25,16  c0-3.62,2.326-5.244,3.256-5.748l1.85-3.699C30.276,6.21,30.627,5.991,31.013,6c0.383,0.005,0.73,0.229,0.893,0.575l1.605,3.426  c2.958,0.039,5.412,2.417,5.487,5.335c0.094,3.652-2.825,5.232-4.569,6.177c-0.289,0.157-1.102,0.597-1.396,0.845  c0.092,0.253,0.341,0.786,0.484,1.096l0.123,0.264c0.401,0.853,0.923,1.965,1.206,3.283h2.535l1.724-3.447  c0.34-0.678,1.449-0.678,1.789,0L42.618,27h1.054C43.805,26.855,44,26.55,44,26c0-3.44-3.565-6.174-3.602-6.201  c-0.343-0.259-0.482-0.709-0.346-1.116S40.57,18,41,18h2.612L40.052,7.316C40.018,7.214,40,7.107,40,7V1  c0-0.467,0.322-0.871,0.777-0.975c0.457-0.107,0.921,0.122,1.124,0.541l13,27c0.141,0.293,0.131,0.636-0.027,0.92L43.818,48.352  C43.35,49.332,42.288,50,41.142,50H40c-0.553,0-1-0.447-1-1v-6c0-0.404,0.243-0.769,0.616-0.924l0,0  c-0.019,0,3.792-2.74,4.322-7.076h-1.32l-1.724,3.447c-0.34,0.678-1.449,0.678-1.789,0L37.382,35h-1.43  c-0.257,2.615-1.495,4.045-2.346,5.026C33,40.726,33,40.768,33,41c0,0.228,0,0.257,0.622,0.879C34.511,42.768,36,44.255,36,47  c0,2.338-1.066,3.713-1.845,4.717C33.59,52.446,33.2,52.949,33.059,54H35c0.338,0,0.652,0.17,0.837,0.453  c0.185,0.282,0.215,0.639,0.079,0.947l-3.5,8C32.257,63.765,31.897,64,31.5,64z M29.002,54.795l2.498,5.71L33.471,56H32  c-0.553,0-1-0.447-1-1c0-2.477,0.765-3.464,1.575-4.509C33.275,49.587,34,48.653,34,47c0-1.916-0.994-2.909-1.793-3.706  C31.506,42.591,31,42.084,31,41c0-1.021,0.436-1.522,1.095-2.284C32.943,37.736,34,36.518,34,34c0-0.553,0.447-1,1-1h3  c0.379,0,0.725,0.214,0.895,0.553L40,35.764l1.105-2.211C41.275,33.214,41.621,33,42,33h3c0.553,0,1,0.447,1,1  c0,4.854-3.504,8.339-5,9.507V48h0.142c0.382,0,0.735-0.223,0.901-0.567l10.831-19.466L42,5.382v1.456l3.948,11.846  c0.103,0.305,0.051,0.641-0.137,0.901C45.623,19.846,45.321,20,45,20h-1.528C44.67,21.394,46,23.503,46,26  c0,1.672-0.976,2.606-1.553,2.895C44.309,28.964,44.155,29,44,29h-2c-0.379,0-0.725-0.214-0.895-0.553L40,26.236l-1.105,2.211  C38.725,28.786,38.379,29,38,29h-4c-0.508,0-0.936-0.381-0.993-0.886c-0.16-1.384-0.724-2.584-1.176-3.548l-0.124-0.265  C31.267,23.356,31,22.749,31,22.25c0-1.154,1.093-1.746,2.476-2.495c1.962-1.063,3.58-2.124,3.522-4.368  C36.95,13.52,35.353,12,33.436,12h-0.561c-0.388,0-0.741-0.225-0.905-0.575l-0.999-2.131l-1.076,2.153  c-0.109,0.219-0.296,0.391-0.523,0.481c-0.071,0.03-1.529,0.663-2.123,2.451C28.561,14.015,29.806,14,30,14h3.466  c0.426,0,0.837,0.179,1.128,0.491c0.284,0.304,0.431,0.712,0.402,1.122c-0.069,1.03-0.984,1.576-2.472,2.382  C30.596,19.04,29,20.08,29,22.25c0,0.979,0.434,1.911,0.894,2.896c0.082,0.178,0.171,0.355,0.261,0.534  c0.312,0.627,0.665,1.336,0.825,2.119c0.061,0.294-0.015,0.6-0.205,0.832C30.585,28.865,30.301,29,30,29h-4  c-0.379,0-0.725-0.214-0.895-0.553L24,26.236l-1.105,2.211C22.725,28.786,22.379,29,22,29h-2c-0.155,0-0.309-0.036-0.447-0.105  C18.976,28.606,18,27.672,18,26c0-2.497,1.33-4.606,2.528-6H19c-0.321,0-0.623-0.154-0.812-0.415  c-0.188-0.261-0.239-0.597-0.137-0.901L22,6.838V5.382L11.114,27.991L22,49.764v-6.317c-1.315-1.244-4-4.752-4-9.446  c0-0.553,0.447-1,1-1h3c0.379,0,0.725,0.214,0.895,0.553L24,35.764l1.105-2.211C25.275,33.214,25.621,33,26,33h5  c0.553,0,1,0.447,1,1c0,1.772-0.657,2.529-1.417,3.407C29.841,38.264,29,39.234,29,41c0,1.916,0.994,2.909,1.793,3.706  C31.494,45.409,32,45.916,32,47c0,0.968-0.4,1.484-1.007,2.267C30.125,50.389,29.049,51.778,29.002,54.795z"/><path style="fill:#8D6C9F;" d="M15.201,54c-0.329,0-0.65-0.162-0.842-0.459c-0.299-0.464-0.165-1.083,0.3-1.382l1.786-1.149  c0.464-0.298,1.083-0.164,1.382,0.3s0.165,1.083-0.3,1.382l-1.786,1.149C15.574,53.948,15.387,54,15.201,54z"/><path style="fill:#8D6C9F;" d="M6.201,36.149c-0.329,0-0.65-0.162-0.842-0.459c-0.299-0.464-0.165-1.083,0.3-1.382l1.786-1.149  c0.465-0.297,1.083-0.164,1.382,0.3s0.165,1.083-0.3,1.382L6.741,35.99C6.574,36.098,6.387,36.149,6.201,36.149z"/><path style="fill:#8D6C9F;" d="M8.451,40.612c-0.329,0-0.65-0.162-0.842-0.459c-0.299-0.464-0.165-1.083,0.3-1.382l1.786-1.149  c0.464-0.298,1.083-0.164,1.382,0.3s0.165,1.083-0.3,1.382l-1.786,1.149C8.824,40.561,8.637,40.612,8.451,40.612z"/><path style="fill:#8D6C9F;" d="M10.701,45.074c-0.329,0-0.651-0.162-0.842-0.459c-0.299-0.465-0.165-1.083,0.3-1.382l1.786-1.148  c0.467-0.297,1.084-0.164,1.382,0.3c0.299,0.465,0.165,1.083-0.3,1.382l-1.786,1.148C11.073,45.022,10.887,45.074,10.701,45.074z"/><path style="fill:#8D6C9F;" d="M12.951,49.537c-0.329,0-0.65-0.162-0.842-0.459c-0.299-0.464-0.165-1.083,0.3-1.382l1.786-1.149  c0.465-0.297,1.083-0.164,1.382,0.3s0.165,1.083-0.3,1.382l-1.786,1.149C13.324,49.485,13.137,49.537,12.951,49.537z"/></svg>