<?xml version="1.0" standalone="no"?>
<!DOCTYPE svg PUBLIC "-//W3C//DTD SVG 20010904//EN"
 "http://www.w3.org/TR/2001/REC-SVG-20010904/DTD/svg10.dtd">
<svg version="1.0" xmlns="http://www.w3.org/2000/svg"
 width="500.000000pt" height="500.000000pt" viewBox="0 0 500.000000 500.000000"
 preserveAspectRatio="xMidYMid meet">
<metadata>
Created by potrace 1.14, written by Peter Selinger 2001-2017
</metadata>
<g transform="translate(0.000000,500.000000) scale(0.100000,-0.100000)"
fill="#000000" stroke="none">
<path d="M2429 4789 c0 -19 -2 -43 -4 -54 -3 -11 -7 -47 -10 -80 -5 -56 -9
-90 -20 -175 -2 -19 -7 -64 -10 -100 -11 -123 -4 -114 -118 -148 -56 -17 -138
-42 -182 -55 -44 -14 -174 -54 -290 -90 -115 -36 -281 -87 -368 -114 -87 -27
-159 -53 -159 -58 -1 -5 39 -40 88 -77 49 -38 130 -100 179 -139 50 -38 149
-115 220 -170 72 -55 160 -124 196 -152 l67 -52 -52 -28 c-28 -15 -94 -51
-146 -79 -52 -28 -140 -76 -195 -106 -116 -65 -238 -130 -312 -169 -29 -15
-53 -30 -53 -34 0 -4 75 -59 168 -122 148 -101 381 -259 422 -287 195 -132
440 -302 444 -308 2 -4 7 -108 11 -232 13 -427 26 -685 50 -960 2 -25 7 -83
10 -130 3 -47 8 -101 10 -120 3 -19 7 -64 10 -100 3 -36 10 -99 15 -140 5 -41
12 -102 16 -135 3 -33 10 -80 13 -105 l7 -45 8 65 c4 36 9 76 11 90 2 14 7 59
10 100 3 41 8 98 11 125 5 61 11 143 19 255 3 47 8 101 10 120 3 19 7 87 10
150 3 63 7 149 10 190 5 79 10 214 21 545 3 110 7 201 8 202 2 2 402 -254 568
-363 37 -24 70 -44 73 -44 4 0 13 -6 20 -14 11 -11 -20 -38 -201 -172 -119
-87 -224 -166 -234 -174 -10 -8 -44 -33 -74 -55 -31 -22 -56 -41 -56 -44 0 -2
9 -12 20 -21 19 -17 203 -189 393 -370 50 -47 104 -98 122 -115 54 -51 283
-266 333 -313 26 -25 82 -78 125 -119 42 -41 77 -72 77 -69 0 5 -45 62 -158
201 -10 11 -53 65 -97 120 -44 55 -84 105 -90 111 -11 13 -41 49 -170 209 -49
61 -137 169 -194 240 -58 71 -100 130 -94 132 5 2 37 20 69 41 33 20 68 42 79
49 11 6 112 67 225 134 113 68 221 133 241 144 49 27 84 54 78 59 -2 2 -69 51
-149 108 -313 225 -556 400 -575 414 -11 8 -74 53 -140 100 -66 47 -135 99
-154 114 l-35 27 -2 239 c-3 335 -17 832 -29 1059 -4 55 -8 145 -10 200 -2 55
-7 129 -10 165 -10 112 -15 172 -20 260 -3 47 -8 101 -10 120 -2 19 -6 73 -10
120 -3 47 -8 96 -10 110 -2 14 -7 52 -10 85 -7 68 -15 85 -16 34z m-84 -876
c-12 -165 -14 -198 -20 -327 -9 -158 -9 -158 -26 -167 -12 -6 -94 -31 -110
-33 -5 -1 -285 218 -299 234 -3 3 -48 40 -102 82 -53 42 -99 81 -102 87 -4 6
18 17 51 27 120 34 419 126 456 140 20 7 37 12 37 10 0 -3 24 4 53 14 28 11
56 19 60 20 5 0 5 -39 2 -87z m-41 -820 c-3 -115 -7 -282 -9 -373 -2 -91 -3
-166 -4 -167 0 -2 -19 7 -41 20 -23 12 -57 31 -78 42 -71 39 -288 158 -375
208 l-88 49 44 32 c25 17 129 92 232 166 103 74 196 142 208 150 12 8 42 29
66 47 24 18 46 33 48 33 2 0 1 -93 -3 -207z"/>
</g>
</svg>
